<svg width="313" height="96" viewBox="0 0 313 96" fill="none" xmlns="http://www.w3.org/2000/svg">
<path d="M6.58549 41.8432C6.60759 54.0667 11.3774 65.8036 19.8883 74.5774C28.9234 83.869 40.8288 88.6256 53.7102 88.7983V95.4576C39.9644 95.4654 26.738 90.2068 16.7499 80.7629C5.68441 70.2142 0.36587 56.9953 0 41.8432H6.58549Z" fill="#D44746"/>
<path d="M53.7102 6.67346C44.9042 6.92841 37.2613 9.82304 30.7535 15.814C23.9052 22.1503 19.8588 30.9506 19.5068 40.2739C19.11 49.61 22.4413 58.7209 28.7666 65.5992C35.5478 72.9382 43.857 76.3467 53.7102 76.7384V83.4103C52.4175 83.4274 51.0859 83.314 49.7969 83.2107C41.3864 82.2166 34.0467 79.1777 27.5674 73.6676C19.1454 66.4844 13.914 56.2557 13.0198 45.2227C12.0672 34.0622 15.61 22.9833 22.8613 14.4461C30.2415 5.78426 40.0263 0.983344 51.3096 0.0749131C51.9365 -0.00131156 53.0447 0.0108902 53.7102 0V6.67346Z" fill="#D44746"/>
<path d="M53.5265 13.7709C60.1986 13.632 67.3506 16.4866 72.1546 21.0441C78.3314 26.9038 81.0269 33.5166 81.3768 41.8581H53.7102V69.7781L53.6654 69.875C53.241 70.0825 50.61 69.7713 50.056 69.6974C44.4197 68.9486 39.1573 66.4605 35.0018 62.5797C29.5196 57.4855 26.2914 50.4181 26.0306 42.939C25.7251 35.4256 28.4302 28.101 33.546 22.59C38.9972 16.7453 45.6364 14.0514 53.5265 13.7709Z" fill="#D44746"/>
<path d="M158.24 45.4261C160.416 45.426 162.582 45.4174 164.758 45.4593C173.825 45.6338 181.884 51.556 181.891 61.195C181.917 65.4085 180.25 69.4561 177.263 72.428C171.331 78.3451 164.353 77.5985 156.769 77.5987L143.899 77.5954V57.5499H149.092V73.2244L158.494 73.2296C161.453 73.2304 165.005 73.4266 167.811 72.7006C169.912 72.1732 171.837 71.1017 173.392 69.5937C177.777 65.2969 177.906 57.9423 173.553 53.5734C171.984 52.0216 170.032 50.9118 167.897 50.3562C165.104 49.6405 160.268 49.8482 157.233 49.848L143.923 49.8513C144.798 48.5564 146.292 46.7221 147.275 45.4303L158.24 45.4261Z" fill="#004DA7"/>
<path d="M64.2285 58.6956H88.9504V45.4303H94.1458V77.5954H88.9504V63.1181H64.2285V77.5954H59.0303L59.0355 45.4303H64.2285V58.6956Z" fill="#004DA7"/>
<path d="M122.89 65.6732V77.5954H117.694V65.6705L104.489 52.5337C102.187 50.2446 99.6023 47.7777 97.3861 45.4329L104.092 45.4303L120.396 61.7287L136.359 45.4303H142.949L122.89 65.6732Z" fill="#004DA7"/>
<path d="M205.31 45.4265C209.005 45.425 212.859 45.2342 216.456 45.8796C221.501 46.817 226.014 49.6121 226.45 55.1443C226.994 62.0654 222.016 65.4157 215.708 65.9998L228.9 77.5943L221.845 77.5954C218.087 74.3016 214.054 70.4118 210.354 66.9775H191.878V77.5954H186.68V62.782L203.246 62.7825C206.181 62.7852 209.324 62.8931 212.218 62.6762C215.873 62.4025 221.126 60.9793 221.154 56.4647C221.178 52.5177 218.155 50.7858 214.71 50.2474C211.014 49.6699 207.144 49.8489 203.415 49.8483L186.604 49.8513C187.733 48.3706 188.872 46.8969 190.019 45.4303L205.31 45.4265Z" fill="#004DA7"/>
<path d="M254.125 45.0059C254.395 45.0176 254.665 45.0491 254.931 45.1004C257.006 45.5043 258.363 48.1896 259.468 49.8399L278.111 77.5954H243.257L246.419 73.2244H268.845C267.284 70.9299 265.742 68.5596 264.205 66.2449L254.022 50.9169L235.993 77.5954H229.835C231.649 75.0373 233.482 72.2472 235.255 69.6453L244.612 55.9278L248.799 49.7714C250.266 47.6159 251.266 45.2213 254.125 45.0059Z" fill="#004DA7"/>
<path fill-rule="evenodd" clip-rule="evenodd" d="M270.79 47.093C271.578 47.0877 273.071 46.9888 273.696 47.3351C274.996 48.0555 274.855 49.7654 273.425 50.2718L274.703 52.3968H273.775C273.616 52.3344 272.73 50.7064 272.571 50.4273L271.624 50.4305V52.3968H270.79V47.093ZM273.698 48.6858C273.625 47.689 272.327 47.8477 271.624 47.8562V49.7457C272.259 49.7524 272.905 49.8345 273.447 49.5153C273.684 49.2278 273.724 49.0588 273.698 48.6858Z" fill="#004DA7"/>
<path fill-rule="evenodd" clip-rule="evenodd" d="M271.853 44.9883C274.483 44.6268 276.906 46.4729 277.256 49.1049C277.606 51.737 275.749 54.1519 273.115 54.4901C270.498 54.8261 268.102 52.9835 267.754 50.3678C267.406 47.7522 269.238 45.3476 271.853 44.9883ZM276.466 48.9867C276.051 46.7906 273.927 45.3516 271.735 45.7799C269.56 46.2045 268.136 48.305 268.547 50.4819C268.959 52.6589 271.05 54.0954 273.229 53.6979C275.428 53.2969 276.88 51.1828 276.466 48.9867Z" fill="#004DA7"/>
<path d="M229.209 79.1704L235.42 79.1702C234 81.0042 232.592 82.8469 231.195 84.6981H225.003L229.209 79.1704Z" fill="#D44746"/>
<path d="M224.984 84.6984L231.195 84.6981C229.775 86.5322 228.367 88.3749 226.969 90.2261H220.778L224.984 84.6984Z" fill="white"/>
<path d="M220.79 90.238H226.961C225.674 92.0247 224.125 93.9763 222.775 95.7318H216.608C217.937 93.9087 219.413 92.0343 220.79 90.238Z" fill="#0E6A37"/>
<path fill-rule="evenodd" clip-rule="evenodd" d="M290.689 87.0333C293.078 86.6636 295.312 88.308 295.67 90.6979C296.029 93.0886 294.375 95.3153 291.982 95.6624C289.605 96.0069 287.397 94.366 287.041 91.9909C286.684 89.6158 288.316 87.3995 290.689 87.0333ZM294.192 90.9903C293.997 89.424 292.574 88.3098 291.007 88.4973C289.432 88.6864 288.311 90.1191 288.505 91.6933C288.699 93.2682 290.136 94.3841 291.711 94.1837C293.275 93.9841 294.385 92.5566 294.192 90.9903Z" fill="#D44746"/>
<path d="M235.889 84.9906C238.38 84.824 240.218 85.5164 241.421 87.8125L239.812 88.2412C238.051 85.7186 234.23 85.8488 233.218 88.8227C232.041 92.2764 235.123 95.501 238.668 93.5441C239.336 93.0643 239.522 92.81 239.94 92.0994L241.533 92.515C241.427 92.7823 241.226 93.1493 241.071 93.3888C240.348 94.4865 239.22 95.2546 237.933 95.5244C230.629 97.0873 228.601 86.2714 235.889 84.9906Z" fill="#D44746"/>
<path d="M271.823 84.9879C274.331 84.8378 276.146 85.4939 277.349 87.8134L275.775 88.2317C274.412 86.2749 271.531 85.7126 269.851 87.613C267.618 90.139 269.469 94.6575 273.144 94.1012C274.451 93.9034 275.179 93.6049 276.046 92.5497L276.044 91.3895H273.131L273.13 89.89H277.554V95.4715H276.102L276.118 94.2428C275.295 94.9066 274.663 95.3344 273.582 95.5626C272.214 95.8464 270.789 95.5765 269.619 94.812C265.936 92.3874 266.702 86.1629 271.126 85.1329C271.358 85.0791 271.589 85.0322 271.823 84.9879Z" fill="#D44746"/>
<path d="M298.68 87.2198C298.689 88.8608 298.51 91.2984 298.811 92.8751C299.167 94.7477 302.666 94.7608 302.819 92.456C302.934 90.7291 302.871 88.9745 302.861 87.2198H304.403V88.5727C304.416 90.3126 304.744 93.2483 303.483 94.6081C302.283 95.9783 299.259 95.9861 298.037 94.6593C296.666 93.1693 297.087 89.1871 297.096 87.2198H298.68Z" fill="#D44746"/>
<path fill-rule="evenodd" clip-rule="evenodd" d="M255.042 85.1468C256.577 85.1363 259.483 84.9438 260.701 85.618C263.231 87.0203 262.956 90.3491 260.173 91.3349L262.661 95.4715H260.853C260.544 95.3499 258.819 92.1809 258.51 91.6377L256.666 91.6438V95.4715H255.042V85.1468ZM260.703 88.2473C260.563 86.307 258.035 86.6159 256.666 86.6324V90.3108C257.902 90.3239 259.16 90.4835 260.216 89.8622C260.676 89.3025 260.755 88.9736 260.703 88.2473Z" fill="#D44746"/>
<path fill-rule="evenodd" clip-rule="evenodd" d="M279.426 87.2199C281.522 87.2017 285.657 86.6663 285.709 89.7217C285.732 91.0511 285.189 91.6299 284.033 92.141L286.064 95.4715H284.471C284.208 95.3014 282.812 92.8665 282.556 92.4291L280.978 92.4343V95.4715H279.426V87.2199ZM283.799 90.8602C285.296 88.5476 282.359 88.5971 280.978 88.6153V91.2212C281.922 91.2342 282.991 91.3521 283.799 90.8602Z" fill="#D44746"/>
<path d="M248.095 90.9252C249.133 89.0075 250.257 87.055 251.324 85.1468H252.98V95.4715H251.371L251.378 90.0479L251.397 87.7865C250.467 89.5099 249.519 91.2229 248.552 92.9254L247.596 92.9194C246.611 91.2273 245.659 89.516 244.741 87.7865C244.775 90.3482 244.788 92.9098 244.778 95.4715H243.154V85.1468H244.878L248.095 90.9252Z" fill="#D44746"/>
<path fill-rule="evenodd" clip-rule="evenodd" d="M309.292 87.212C311.741 87.1461 313.627 89.0778 312.185 91.4086C311.692 92.2043 310.757 92.4499 309.849 92.6018L307.966 92.6096V95.4715H306.414V87.2198C307.316 87.2112 308.34 87.2372 309.292 87.212ZM310.748 90.8914C312.137 88.5944 309.394 88.571 307.966 88.5927V91.3201C308.92 91.3331 309.977 91.4693 310.748 90.8914Z" fill="#D44746"/>
<path d="M176.908 87.4212C179.027 87.2823 180.383 87.9835 181.387 89.8362L180 90.2076C179.537 89.5767 178.854 88.9762 178.061 88.8417C174.059 88.1631 173.225 93.8341 177.071 94.5517C178.228 94.7678 179.279 94.2922 180.201 93.6154L180.207 92.6842C179.359 92.6651 178.688 92.8578 177.973 92.5966C177.743 92.3146 177.822 92.3084 177.817 91.8503C177.811 91.6065 177.802 91.5821 177.889 91.3609C178.367 91.2368 180.968 91.3001 181.615 91.3062V95.8186H180.238L180.233 94.7947C179.571 95.3856 178.957 95.764 178.064 95.9306C176.949 96.1336 175.8 95.8872 174.868 95.2442C173.936 94.5951 173.303 93.5997 173.112 92.4803C172.635 89.7911 174.293 87.8377 176.908 87.4212Z" fill="#D44746"/>
<path d="M207.754 87.4307C209.508 87.2936 211.016 87.6329 211.646 89.4344L210.302 89.7711C209.845 88.8357 209.357 88.6005 208.299 88.6265C207.616 88.6387 206.767 88.9719 206.871 89.8058C206.952 90.4541 207.658 90.7187 208.22 90.8472C209.529 91.1465 211.463 91.4251 211.728 93.0374C211.822 93.6119 211.633 94.4796 211.283 94.9517C210.731 95.6954 209.823 95.8507 208.969 95.9783C207.033 96.0781 205.766 95.6529 205.063 93.7785C205.505 93.6431 206.028 93.5129 206.478 93.3897C207.189 95.3526 210.203 95.2407 210.115 93.3663C210.052 92.0464 206.84 92.2677 206.036 91.4476C205.713 91.117 205.355 90.8654 205.301 90.271C205.122 88.3593 206.107 87.6997 207.754 87.4307Z" fill="#D44746"/>
<path d="M131.957 87.4212C134.059 87.3109 135.432 87.9505 136.415 89.8388L134.96 90.218C132.208 86.8103 128.362 90.1989 130.038 93.1754C130.395 93.8245 131.002 94.2983 131.717 94.4892C132.642 94.7321 133.437 94.4909 134.231 94.0215C134.553 93.7551 134.724 93.5095 134.981 93.1797L136.433 93.5694C136.334 93.762 136.222 93.9738 136.1 94.1516C135.473 95.081 134.491 95.7119 133.385 95.8985C127.404 96.9563 125.88 88.3852 131.957 87.4212Z" fill="#D44746"/>
<path d="M60.8104 89.6982H65.928V85.4938H67.539L67.5412 92.6903C67.5414 93.2778 67.5763 95.3874 67.5014 95.7674L67.283 95.8186H65.928V91.2602H60.8104V95.8186H59.1859V85.4938H60.8103L60.8104 89.6982Z" fill="#D44746"/>
<path d="M77.7062 89.0075H73.2337V90.8854H76.6111V92.2625C76.0759 92.2565 73.4974 92.1749 73.2337 92.3641V94.366H77.777V95.8186H71.6818V87.567H77.7062V89.0075Z" fill="#D44746"/>
<path fill-rule="evenodd" clip-rule="evenodd" d="M85.9357 87.567C86.9562 90.2953 88.0991 93.0973 89.1647 95.8186H87.5524C87.3771 95.3092 87.1437 94.4041 86.807 94.0188C86.6352 93.8219 86.3184 93.8783 86.0485 93.8766H83.1318L82.4105 95.8186H80.833L84.0694 87.567H85.9357ZM84.9352 88.9285C84.5187 90.0661 84.1018 91.2533 83.6651 92.3788L83.7281 92.4959C84.211 92.5489 84.6119 92.5341 85.094 92.5254H86.3574C86.176 92.0515 85.1287 89.0777 84.9352 88.9285Z" fill="#D44746"/>
<path d="M97.819 89.0075H95.0335V95.8186H93.481V89.0075H90.6894V87.567H97.819V89.0075Z" fill="#D44746"/>
<path d="M114.303 87.0185H108.798V89.7217H113.021V91.2264C112.374 91.2212 109.196 91.1336 108.838 91.3227L108.798 91.5448V94.2992H114.36V95.8186H107.174V85.4938H114.303V87.0185Z" fill="#D44746"/>
<path d="M119.54 87.567C120.197 88.5302 120.947 89.5386 121.629 90.4923C122.331 89.5698 123.032 88.5233 123.699 87.567H125.392C124.421 88.8678 123.445 90.2718 122.493 91.5952C122.936 92.1784 125.436 95.3787 125.518 95.777L125.337 95.8186H123.775L121.457 92.6955C120.708 93.683 119.939 94.8033 119.214 95.8186H117.443C118.487 94.4111 119.522 92.9975 120.549 91.577L117.691 87.567H119.54Z" fill="#D44746"/>
<path d="M141.44 90.8854H145.381V87.567H146.931C146.931 89.7711 147.066 93.729 146.904 95.8186H145.381V92.3424H141.44V95.8186H139.889V87.567H141.44V90.8854Z" fill="#D44746"/>
<path fill-rule="evenodd" clip-rule="evenodd" d="M158.673 95.8186H157.061C156.868 95.2667 156.657 94.333 156.246 93.9607C156.099 93.8279 155.677 93.867 155.47 93.8766H152.64L151.919 95.8186H150.342L153.577 87.567H155.444L158.673 95.8186ZM154.444 88.9285C154.011 90.1112 153.577 91.3548 153.126 92.5254H155.866C155.685 92.0516 154.637 89.0777 154.444 88.9285Z" fill="#D44746"/>
<path d="M167.925 93.3524L167.917 87.567H169.468C169.47 88.5094 169.545 95.571 169.375 95.8186H167.862L163.611 89.8553C163.695 91.7792 163.657 93.88 163.655 95.8186H162.104V87.567H163.692L167.925 93.3524Z" fill="#D44746"/>
<path d="M191.557 89.0075H187.085V90.8854H190.462V92.2625C189.928 92.2565 187.349 92.1749 187.085 92.3641V94.366H191.629V95.8186H185.533V87.567H191.557V89.0075Z" fill="#D44746"/>
<path fill-rule="evenodd" clip-rule="evenodd" d="M195.426 87.567C197.522 87.5488 201.657 87.0134 201.709 90.0688C201.731 91.3982 201.189 91.977 200.032 92.4881L202.064 95.8186H200.47C200.207 95.6485 198.812 93.2135 198.555 92.7762L196.978 92.7814V95.8186H195.426V87.567ZM199.799 91.2072C201.296 88.8947 198.358 88.9442 196.978 88.9624V91.5682C197.922 91.5813 198.991 91.6993 199.799 91.2072Z" fill="#D44746"/>
</svg>
